<?xml version="1.0" encoding="utf-8"?>
<!-- Generator: Adobe Illustrator 24.0.1, SVG Export Plug-In . SVG Version: 6.00 Build 0)  -->
<svg version="1.1" id="Layer_1" xmlns="http://www.w3.org/2000/svg" xmlns:xlink="http://www.w3.org/1999/xlink" x="0px" y="0px"
	 viewBox="0 0 213.64 134.09" style="enable-background:new 0 0 213.64 134.09;" xml:space="preserve">
<style type="text/css">
	.st0{fill:#FFFFFF;stroke:#000000;stroke-width:10;stroke-miterlimit:10;}
	.st1{fill:none;stroke:#000000;stroke-width:10;stroke-miterlimit:10;}
</style>
<polygon class="st0" points="565.18,728.82 410.98,761.82 305.29,644.77 353.82,494.73 508.02,461.73 613.71,578.77 "/>
<path class="st0" d="M485.81,743.61L485.81,743.61c-47.71,10.21-97.25-5.81-129.94-42.02l0,0c-32.7-36.21-43.59-87.12-28.58-133.55
	l0,0c15.01-46.42,53.65-81.31,101.36-91.52l0,0c47.71-10.21,97.25,5.81,129.94,42.02l0,0c32.7,36.21,43.59,87.12,28.58,133.55l0,0
	C572.16,698.52,533.52,733.4,485.81,743.61z"/>
<polygon class="st0" points="47.53,56.73 24.27,62.83 8.98,44.26 16.96,19.59 40.22,13.49 55.51,32.06 "/>
<path class="st0" d="M36.47,59.27L36.47,59.27c-7.64,2-15.75-0.62-20.78-6.72l0,0c-4.39-5.33-5.76-12.54-3.64-19.11l1.15-3.56
	c2.13-6.57,7.46-11.61,14.14-13.36l0,0c7.64-2,15.75,0.62,20.78,6.72l0,0c4.39,5.33,5.76,12.54,3.64,19.11l-1.15,3.56
	C48.49,52.48,43.16,57.52,36.47,59.27z"/>
<line class="st1" x1="4.95" y1="122" x2="208.33" y2="122"/>
<line class="st1" x1="4.95" y1="87.93" x2="208.33" y2="87.93"/>
<line class="st1" x1="69.81" y1="53.48" x2="208.36" y2="53.87"/>
<line class="st1" x1="69.78" y1="19.41" x2="208.33" y2="19.8"/>
</svg>
